<?xml version='1.0' encoding='UTF-8'?>
<svg style="background:#fff" width="43mm" height="43mm" version="1.1" viewBox="0 0 43 43" xmlns="http://www.w3.org/2000/svg"><path d="M3,3H4V4H3zM4,3H5V4H4zM5,3H6V4H5zM6,3H7V4H6zM7,3H8V4H7zM8,3H9V4H8zM9,3H10V4H9zM12,3H13V4H12zM13,3H14V4H13zM15,3H16V4H15zM19,3H20V4H19zM22,3H23V4H22zM24,3H25V4H24zM26,3H27V4H26zM29,3H30V4H29zM33,3H34V4H33zM34,3H35V4H34zM35,3H36V4H35zM36,3H37V4H36zM37,3H38V4H37zM38,3H39V4H38zM39,3H40V4H39zM3,4H4V5H3zM9,4H10V5H9zM12,4H13V5H12zM14,4H15V5H14zM15,4H16V5H15zM19,4H20V5H19zM20,4H21V5H20zM21,4H22V5H21zM22,4H23V5H22zM23,4H24V5H23zM28,4H29V5H28zM29,4H30V5H29zM33,4H34V5H33zM39,4H40V5H39zM3,5H4V6H3zM5,5H6V6H5zM6,5H7V6H6zM7,5H8V6H7zM9,5H10V6H9zM11,5H12V6H11zM13,5H14V6H13zM18,5H19V6H18zM20,5H21V6H20zM21,5H22V6H21zM22,5H23V6H22zM23,5H24V6H23zM25,5H26V6H25zM27,5H28V6H27zM28,5H29V6H28zM29,5H30V6H29zM30,5H31V6H30zM33,5H34V6H33zM35,5H36V6H35zM36,5H37V6H36zM37,5H38V6H37zM39,5H40V6H39zM3,6H4V7H3zM5,6H6V7H5zM6,6H7V7H6zM7,6H8V7H7zM9,6H10V7H9zM11,6H12V7H11zM12,6H13V7H12zM13,6H14V7H13zM14,6H15V7H14zM15,6H16V7H15zM16,6H17V7H16zM18,6H19V7H18zM19,6H20V7H19zM20,6H21V7H20zM22,6H23V7H22zM23,6H24V7H23zM26,6H27V7H26zM28,6H29V7H28zM30,6H31V7H30zM31,6H32V7H31zM33,6H34V7H33zM35,6H36V7H35zM36,6H37V7H36zM37,6H38V7H37zM39,6H40V7H39zM3,7H4V8H3zM5,7H6V8H5zM6,7H7V8H6zM7,7H8V8H7zM9,7H10V8H9zM12,7H13V8H12zM13,7H14V8H13zM15,7H16V8H15zM16,7H17V8H16zM17,7H18V8H17zM18,7H19V8H18zM19,7H20V8H19zM22,7H23V8H22zM23,7H24V8H23zM24,7H25V8H24zM29,7H30V8H29zM33,7H34V8H33zM35,7H36V8H35zM36,7H37V8H36zM37,7H38V8H37zM39,7H40V8H39zM3,8H4V9H3zM9,8H10V9H9zM12,8H13V9H12zM14,8H15V9H14zM15,8H16V9H15zM16,8H17V9H16zM17,8H18V9H17zM21,8H22V9H21zM22,8H23V9H22zM23,8H24V9H23zM27,8H28V9H27zM33,8H34V9H33zM39,8H40V9H39zM3,9H4V10H3zM4,9H5V10H4zM5,9H6V10H5zM6,9H7V10H6zM7,9H8V10H7zM8,9H9V10H8zM9,9H10V10H9zM11,9H12V10H11zM13,9H14V10H13zM15,9H16V10H15zM17,9H18V10H17zM19,9H20V10H19zM21,9H22V10H21zM23,9H24V10H23zM25,9H26V10H25zM27,9H28V10H27zM29,9H30V10H29zM31,9H32V10H31zM33,9H34V10H33zM34,9H35V10H34zM35,9H36V10H35zM36,9H37V10H36zM37,9H38V10H37zM38,9H39V10H38zM39,9H40V10H39zM18,10H19V11H18zM19,10H20V11H19zM20,10H21V11H20zM23,10H24V11H23zM24,10H25V11H24zM25,10H26V11H25zM26,10H27V11H26zM27,10H28V11H27zM28,10H29V11H28zM30,10H31V11H30zM31,10H32V11H31zM6,11H7V12H6zM7,11H8V12H7zM9,11H10V12H9zM10,11H11V12H10zM12,11H13V12H12zM16,11H17V12H16zM18,11H19V12H18zM19,11H20V12H19zM22,11H23V12H22zM24,11H25V12H24zM27,11H28V12H27zM29,11H30V12H29zM31,11H32V12H31zM36,11H37V12H36zM37,11H38V12H37zM4,12H5V13H4zM5,12H6V13H5zM7,12H8V13H7zM10,12H11V13H10zM12,12H13V13H12zM15,12H16V13H15zM20,12H21V13H20zM22,12H23V13H22zM23,12H24V13H23zM24,12H25V13H24zM25,12H26V13H25zM26,12H27V13H26zM27,12H28V13H27zM28,12H29V13H28zM30,12H31V13H30zM34,12H35V13H34zM35,12H36V13H35zM36,12H37V13H36zM4,13H5V14H4zM6,13H7V14H6zM9,13H10V14H9zM12,13H13V14H12zM13,13H14V14H13zM15,13H16V14H15zM18,13H19V14H18zM19,13H20V14H19zM21,13H22V14H21zM23,13H24V14H23zM25,13H26V14H25zM26,13H27V14H26zM28,13H29V14H28zM30,13H31V14H30zM32,13H33V14H32zM33,13H34V14H33zM36,13H37V14H36zM37,13H38V14H37zM39,13H40V14H39zM10,14H11V15H10zM13,14H14V15H13zM14,14H15V15H14zM15,14H16V15H15zM16,14H17V15H16zM17,14H18V15H17zM19,14H20V15H19zM21,14H22V15H21zM24,14H25V15H24zM25,14H26V15H25zM26,14H27V15H26zM27,14H28V15H27zM29,14H30V15H29zM31,14H32V15H31zM32,14H33V15H32zM33,14H34V15H33zM36,14H37V15H36zM37,14H38V15H37zM3,15H4V16H3zM4,15H5V16H4zM7,15H8V16H7zM8,15H9V16H8zM9,15H10V16H9zM11,15H12V16H11zM13,15H14V16H13zM15,15H16V16H15zM16,15H17V16H16zM18,15H19V16H18zM19,15H20V16H19zM20,15H21V16H20zM23,15H24V16H23zM30,15H31V16H30zM31,15H32V16H31zM33,15H34V16H33zM36,15H37V16H36zM39,15H40V16H39zM3,16H4V17H3zM6,16H7V17H6zM7,16H8V17H7zM11,16H12V17H11zM12,16H13V17H12zM15,16H16V17H15zM17,16H18V17H17zM18,16H19V17H18zM19,16H20V17H19zM21,16H22V17H21zM22,16H23V17H22zM23,16H24V17H23zM26,16H27V17H26zM27,16H28V17H27zM29,16H30V17H29zM30,16H31V17H30zM31,16H32V17H31zM32,16H33V17H32zM35,16H36V17H35zM37,16H38V17H37zM3,17H4V18H3zM4,17H5V18H4zM6,17H7V18H6zM9,17H10V18H9zM14,17H15V18H14zM18,17H19V18H18zM20,17H21V18H20zM21,17H22V18H21zM23,17H24V18H23zM26,17H27V18H26zM27,17H28V18H27zM29,17H30V18H29zM30,17H31V18H30zM31,17H32V18H31zM32,17H33V18H32zM33,17H34V18H33zM34,17H35V18H34zM36,17H37V18H36zM37,17H38V18H37zM38,17H39V18H38zM39,17H40V18H39zM3,18H4V19H3zM5,18H6V19H5zM6,18H7V19H6zM10,18H11V19H10zM12,18H13V19H12zM15,18H16V19H15zM20,18H21V19H20zM22,18H23V19H22zM30,18H31V19H30zM32,18H33V19H32zM33,18H34V19H33zM36,18H37V19H36zM37,18H38V19H37zM38,18H39V19H38zM3,19H4V20H3zM6,19H7V20H6zM7,19H8V20H7zM9,19H10V20H9zM13,19H14V20H13zM14,19H15V20H14zM15,19H16V20H15zM16,19H17V20H16zM18,19H19V20H18zM19,19H20V20H19zM20,19H21V20H20zM21,19H22V20H21zM22,19H23V20H22zM25,19H26V20H25zM26,19H27V20H26zM27,19H28V20H27zM28,19H29V20H28zM33,19H34V20H33zM37,19H38V20H37zM38,19H39V20H38zM39,19H40V20H39zM6,20H7V21H6zM7,20H8V21H7zM11,20H12V21H11zM12,20H13V21H12zM13,20H14V21H13zM14,20H15V21H14zM15,20H16V21H15zM16,20H17V21H16zM18,20H19V21H18zM23,20H24V21H23zM28,20H29V21H28zM29,20H30V21H29zM30,20H31V21H30zM34,20H35V21H34zM37,20H38V21H37zM38,20H39V21H38zM3,21H4V22H3zM4,21H5V22H4zM5,21H6V22H5zM7,21H8V22H7zM9,21H10V22H9zM13,21H14V22H13zM14,21H15V22H14zM16,21H17V22H16zM18,21H19V22H18zM20,21H21V22H20zM22,21H23V22H22zM25,21H26V22H25zM26,21H27V22H26zM30,21H31V22H30zM33,21H34V22H33zM34,21H35V22H34zM35,21H36V22H35zM39,21H40V22H39zM3,22H4V23H3zM5,22H6V23H5zM7,22H8V23H7zM8,22H9V23H8zM10,22H11V23H10zM11,22H12V23H11zM12,22H13V23H12zM13,22H14V23H13zM15,22H16V23H15zM18,22H19V23H18zM20,22H21V23H20zM21,22H22V23H21zM22,22H23V23H22zM24,22H25V23H24zM25,22H26V23H25zM28,22H29V23H28zM31,22H32V23H31zM32,22H33V23H32zM33,22H34V23H33zM35,22H36V23H35zM36,22H37V23H36zM39,22H40V23H39zM7,23H8V24H7zM8,23H9V24H8zM9,23H10V24H9zM12,23H13V24H12zM13,23H14V24H13zM14,23H15V24H14zM16,23H17V24H16zM20,23H21V24H20zM21,23H22V24H21zM23,23H24V24H23zM25,23H26V24H25zM30,23H31V24H30zM31,23H32V24H31zM32,23H33V24H32zM33,23H34V24H33zM35,23H36V24H35zM36,23H37V24H36zM38,23H39V24H38zM4,24H5V25H4zM7,24H8V25H7zM12,24H13V25H12zM13,24H14V25H13zM19,24H20V25H19zM21,24H22V25H21zM22,24H23V25H22zM26,24H27V25H26zM29,24H30V25H29zM30,24H31V25H30zM31,24H32V25H31zM34,24H35V25H34zM35,24H36V25H35zM3,25H4V26H3zM4,25H5V26H4zM5,25H6V26H5zM6,25H7V26H6zM7,25H8V26H7zM9,25H10V26H9zM10,25H11V26H10zM11,25H12V26H11zM12,25H13V26H12zM13,25H14V26H13zM14,25H15V26H14zM16,25H17V26H16zM19,25H20V26H19zM22,25H23V26H22zM23,25H24V26H23zM24,25H25V26H24zM25,25H26V26H25zM29,25H30V26H29zM30,25H31V26H30zM35,25H36V26H35zM39,25H40V26H39zM4,26H5V27H4zM5,26H6V27H5zM7,26H8V27H7zM8,26H9V27H8zM11,26H12V27H11zM12,26H13V27H12zM14,26H15V27H14zM15,26H16V27H15zM17,26H18V27H17zM18,26H19V27H18zM19,26H20V27H19zM20,26H21V27H20zM23,26H24V27H23zM24,26H25V27H24zM26,26H27V27H26zM30,26H31V27H30zM31,26H32V27H31zM34,26H35V27H34zM36,26H37V27H36zM37,26H38V27H37zM39,26H40V27H39zM3,27H4V28H3zM7,27H8V28H7zM9,27H10V28H9zM10,27H11V28H10zM12,27H13V28H12zM14,27H15V28H14zM16,27H17V28H16zM17,27H18V28H17zM19,27H20V28H19zM20,27H21V28H20zM22,27H23V28H22zM23,27H24V28H23zM25,27H26V28H25zM26,27H27V28H26zM27,27H28V28H27zM32,27H33V28H32zM33,27H34V28H33zM39,27H40V28H39zM3,28H4V29H3zM4,28H5V29H4zM6,28H7V29H6zM7,28H8V29H7zM8,28H9V29H8zM10,28H11V29H10zM11,28H12V29H11zM13,28H14V29H13zM15,28H16V29H15zM16,28H17V29H16zM20,28H21V29H20zM21,28H22V29H21zM22,28H23V29H22zM27,28H28V29H27zM28,28H29V29H28zM29,28H30V29H29zM30,28H31V29H30zM31,28H32V29H31zM35,28H36V29H35zM36,28H37V29H36zM37,28H38V29H37zM3,29H4V30H3zM4,29H5V30H4zM8,29H9V30H8zM9,29H10V30H9zM10,29H11V30H10zM11,29H12V30H11zM13,29H14V30H13zM15,29H16V30H15zM18,29H19V30H18zM19,29H20V30H19zM20,29H21V30H20zM21,29H22V30H21zM30,29H31V30H30zM33,29H34V30H33zM36,29H37V30H36zM38,29H39V30H38zM39,29H40V30H39zM3,30H4V31H3zM6,30H7V31H6zM7,30H8V31H7zM8,30H9V31H8zM10,30H11V31H10zM12,30H13V31H12zM13,30H14V31H13zM14,30H15V31H14zM17,30H18V31H17zM18,30H19V31H18zM19,30H20V31H19zM21,30H22V31H21zM22,30H23V31H22zM25,30H26V31H25zM26,30H27V31H26zM32,30H33V31H32zM35,30H36V31H35zM36,30H37V31H36zM37,30H38V31H37zM3,31H4V32H3zM5,31H6V32H5zM6,31H7V32H6zM7,31H8V32H7zM9,31H10V32H9zM10,31H11V32H10zM13,31H14V32H13zM18,31H19V32H18zM19,31H20V32H19zM22,31H23V32H22zM24,31H25V32H24zM27,31H28V32H27zM28,31H29V32H28zM31,31H32V32H31zM32,31H33V32H32zM33,31H34V32H33zM34,31H35V32H34zM35,31H36V32H35zM36,31H37V32H36zM37,31H38V32H37zM11,32H12V33H11zM13,32H14V33H13zM14,32H15V33H14zM15,32H16V33H15zM18,32H19V33H18zM20,32H21V33H20zM22,32H23V33H22zM24,32H25V33H24zM31,32H32V33H31zM35,32H36V33H35zM36,32H37V33H36zM37,32H38V33H37zM3,33H4V34H3zM4,33H5V34H4zM5,33H6V34H5zM6,33H7V34H6zM7,33H8V34H7zM8,33H9V34H8zM9,33H10V34H9zM11,33H12V34H11zM12,33H13V34H12zM15,33H16V34H15zM16,33H17V34H16zM18,33H19V34H18zM20,33H21V34H20zM24,33H25V34H24zM25,33H26V34H25zM26,33H27V34H26zM28,33H29V34H28zM29,33H30V34H29zM31,33H32V34H31zM33,33H34V34H33zM35,33H36V34H35zM36,33H37V34H36zM37,33H38V34H37zM39,33H40V34H39zM3,34H4V35H3zM9,34H10V35H9zM13,34H14V35H13zM17,34H18V35H17zM18,34H19V35H18zM19,34H20V35H19zM21,34H22V35H21zM24,34H25V35H24zM25,34H26V35H25zM26,34H27V35H26zM28,34H29V35H28zM29,34H30V35H29zM31,34H32V35H31zM35,34H36V35H35zM36,34H37V35H36zM38,34H39V35H38zM39,34H40V35H39zM3,35H4V36H3zM5,35H6V36H5zM6,35H7V36H6zM7,35H8V36H7zM9,35H10V36H9zM11,35H12V36H11zM13,35H14V36H13zM14,35H15V36H14zM17,35H18V36H17zM19,35H20V36H19zM20,35H21V36H20zM21,35H22V36H21zM22,35H23V36H22zM23,35H24V36H23zM27,35H28V36H27zM30,35H31V36H30zM31,35H32V36H31zM32,35H33V36H32zM33,35H34V36H33zM34,35H35V36H34zM35,35H36V36H35zM3,36H4V37H3zM5,36H6V37H5zM6,36H7V37H6zM7,36H8V37H7zM9,36H10V37H9zM11,36H12V37H11zM15,36H16V37H15zM16,36H17V37H16zM17,36H18V37H17zM22,36H23V37H22zM23,36H24V37H23zM24,36H25V37H24zM25,36H26V37H25zM26,36H27V37H26zM27,36H28V37H27zM28,36H29V37H28zM29,36H30V37H29zM33,36H34V37H33zM36,36H37V37H36zM3,37H4V38H3zM5,37H6V38H5zM6,37H7V38H6zM7,37H8V38H7zM9,37H10V38H9zM13,37H14V38H13zM15,37H16V38H15zM16,37H17V38H16zM17,37H18V38H17zM18,37H19V38H18zM20,37H21V38H20zM22,37H23V38H22zM24,37H25V38H24zM26,37H27V38H26zM28,37H29V38H28zM30,37H31V38H30zM34,37H35V38H34zM35,37H36V38H35zM37,37H38V38H37zM38,37H39V38H38zM39,37H40V38H39zM3,38H4V39H3zM9,38H10V39H9zM13,38H14V39H13zM14,38H15V39H14zM15,38H16V39H15zM17,38H18V39H17zM19,38H20V39H19zM20,38H21V39H20zM24,38H25V39H24zM26,38H27V39H26zM27,38H28V39H27zM29,38H30V39H29zM33,38H34V39H33zM36,38H37V39H36zM37,38H38V39H37zM38,38H39V39H38zM39,38H40V39H39zM3,39H4V40H3zM4,39H5V40H4zM5,39H6V40H5zM6,39H7V40H6zM7,39H8V40H7zM8,39H9V40H8zM9,39H10V40H9zM12,39H13V40H12zM13,39H14V40H13zM14,39H15V40H14zM15,39H16V40H15zM16,39H17V40H16zM17,39H18V40H17zM19,39H20V40H19zM20,39H21V40H20zM22,39H23V40H22zM24,39H25V40H24zM26,39H27V40H26zM27,39H28V40H27zM31,39H32V40H31zM32,39H33V40H32zM35,39H36V40H35zM36,39H37V40H36zM39,39H40V40H39z" id="qr-path" fill="#000000" fill-opacity="1" fill-rule="nonzero" stroke="none"/></svg>