<?xml version='1.0' encoding='UTF-8'?>
<svg style="background:#fff" width="47mm" height="47mm" version="1.1" viewBox="0 0 47 47" xmlns="http://www.w3.org/2000/svg"><path d="M3,3H4V4H3zM4,3H5V4H4zM5,3H6V4H5zM6,3H7V4H6zM7,3H8V4H7zM8,3H9V4H8zM9,3H10V4H9zM12,3H13V4H12zM15,3H16V4H15zM18,3H19V4H18zM19,3H20V4H19zM20,3H21V4H20zM21,3H22V4H21zM23,3H24V4H23zM24,3H25V4H24zM26,3H27V4H26zM28,3H29V4H28zM33,3H34V4H33zM34,3H35V4H34zM35,3H36V4H35zM37,3H38V4H37zM38,3H39V4H38zM39,3H40V4H39zM40,3H41V4H40zM41,3H42V4H41zM42,3H43V4H42zM43,3H44V4H43zM3,4H4V5H3zM9,4H10V5H9zM11,4H12V5H11zM13,4H14V5H13zM16,4H17V5H16zM17,4H18V5H17zM18,4H19V5H18zM19,4H20V5H19zM21,4H22V5H21zM25,4H26V5H25zM26,4H27V5H26zM27,4H28V5H27zM29,4H30V5H29zM31,4H32V5H31zM35,4H36V5H35zM37,4H38V5H37zM43,4H44V5H43zM3,5H4V6H3zM5,5H6V6H5zM6,5H7V6H6zM7,5H8V6H7zM9,5H10V6H9zM11,5H12V6H11zM13,5H14V6H13zM14,5H15V6H14zM15,5H16V6H15zM16,5H17V6H16zM20,5H21V6H20zM23,5H24V6H23zM27,5H28V6H27zM28,5H29V6H28zM29,5H30V6H29zM31,5H32V6H31zM33,5H34V6H33zM35,5H36V6H35zM37,5H38V6H37zM39,5H40V6H39zM40,5H41V6H40zM41,5H42V6H41zM43,5H44V6H43zM3,6H4V7H3zM5,6H6V7H5zM6,6H7V7H6zM7,6H8V7H7zM9,6H10V7H9zM11,6H12V7H11zM13,6H14V7H13zM17,6H18V7H17zM19,6H20V7H19zM21,6H22V7H21zM22,6H23V7H22zM23,6H24V7H23zM25,6H26V7H25zM29,6H30V7H29zM31,6H32V7H31zM33,6H34V7H33zM35,6H36V7H35zM37,6H38V7H37zM39,6H40V7H39zM40,6H41V7H40zM41,6H42V7H41zM43,6H44V7H43zM3,7H4V8H3zM5,7H6V8H5zM6,7H7V8H6zM7,7H8V8H7zM9,7H10V8H9zM12,7H13V8H12zM14,7H15V8H14zM15,7H16V8H15zM17,7H18V8H17zM20,7H21V8H20zM24,7H25V8H24zM25,7H26V8H25zM27,7H28V8H27zM29,7H30V8H29zM31,7H32V8H31zM33,7H34V8H33zM35,7H36V8H35zM37,7H38V8H37zM39,7H40V8H39zM40,7H41V8H40zM41,7H42V8H41zM43,7H44V8H43zM3,8H4V9H3zM9,8H10V9H9zM11,8H12V9H11zM13,8H14V9H13zM15,8H16V9H15zM17,8H18V9H17zM19,8H20V9H19zM21,8H22V9H21zM23,8H24V9H23zM25,8H26V9H25zM27,8H28V9H27zM29,8H30V9H29zM31,8H32V9H31zM33,8H34V9H33zM35,8H36V9H35zM37,8H38V9H37zM3,9H4V10H3zM4,9H5V10H4zM5,9H6V10H5zM6,9H7V10H6zM7,9H8V10H7zM8,9H9V10H8zM9,9H10V10H9zM11,9H12V10H11zM13,9H14V10H13zM15,9H16V10H15zM17,9H18V10H17zM19,9H20V10H19zM21,9H22V10H21zM23,9H24V10H23zM25,9H26V10H25zM27,9H28V10H27zM29,9H30V10H29zM31,9H32V10H31zM33,9H34V10H33zM35,9H36V10H35zM37,9H38V10H37zM38,9H39V10H38zM39,9H40V10H39zM40,9H41V10H40zM41,9H42V10H41zM42,9H43V10H42zM43,9H44V10H43zM11,10H12V11H11zM12,10H13V11H12zM16,10H17V11H16zM17,10H18V11H17zM19,10H20V11H19zM21,10H22V11H21zM22,10H23V11H22zM25,10H26V11H25zM30,10H31V11H30zM31,10H32V11H31zM3,11H4V12H3zM4,11H5V12H4zM6,11H7V12H6zM7,11H8V12H7zM9,11H10V12H9zM12,11H13V12H12zM13,11H14V12H13zM16,11H17V12H16zM18,11H19V12H18zM19,11H20V12H19zM22,11H23V12H22zM24,11H25V12H24zM27,11H28V12H27zM29,11H30V12H29zM32,11H33V12H32zM34,11H35V12H34zM35,11H36V12H35zM36,11H37V12H36zM37,11H38V12H37zM38,11H39V12H38zM39,11H40V12H39zM41,11H42V12H41zM43,11H44V12H43zM4,12H5V13H4zM5,12H6V13H5zM7,12H8V13H7zM8,12H9V13H8zM11,12H12V13H11zM12,12H13V13H12zM13,12H14V13H13zM14,12H15V13H14zM17,12H18V13H17zM20,12H21V13H20zM23,12H24V13H23zM24,12H25V13H24zM25,12H26V13H25zM28,12H29V13H28zM30,12H31V13H30zM32,12H33V13H32zM35,12H36V13H35zM38,12H39V13H38zM39,12H40V13H39zM41,12H42V13H41zM3,13H4V14H3zM5,13H6V14H5zM8,13H9V14H8zM9,13H10V14H9zM10,13H11V14H10zM11,13H12V14H11zM12,13H13V14H12zM14,13H15V14H14zM15,13H16V14H15zM17,13H18V14H17zM21,13H22V14H21zM23,13H24V14H23zM25,13H26V14H25zM26,13H27V14H26zM28,13H29V14H28zM29,13H30V14H29zM31,13H32V14H31zM33,13H34V14H33zM35,13H36V14H35zM36,13H37V14H36zM37,13H38V14H37zM39,13H40V14H39zM42,13H43V14H42zM43,13H44V14H43zM5,14H6V15H5zM7,14H8V15H7zM8,14H9V15H8zM9,14H10V15H9zM12,14H13V15H12zM13,14H14V15H13zM15,14H16V15H15zM16,14H17V15H16zM17,14H18V15H17zM18,14H19V15H18zM20,14H21V15H20zM22,14H23V15H22zM23,14H24V15H23zM26,14H27V15H26zM27,14H28V15H27zM30,14H31V15H30zM31,14H32V15H31zM33,14H34V15H33zM35,14H36V15H35zM36,14H37V15H36zM37,14H38V15H37zM38,14H39V15H38zM40,14H41V15H40zM42,14H43V15H42zM4,15H5V16H4zM5,15H6V16H5zM8,15H9V16H8zM10,15H11V16H10zM12,15H13V16H12zM13,15H14V16H13zM14,15H15V16H14zM19,15H20V16H19zM21,15H22V16H21zM23,15H24V16H23zM27,15H28V16H27zM28,15H29V16H28zM29,15H30V16H29zM30,15H31V16H30zM31,15H32V16H31zM34,15H35V16H34zM35,15H36V16H35zM36,15H37V16H36zM37,15H38V16H37zM39,15H40V16H39zM41,15H42V16H41zM42,15H43V16H42zM43,15H44V16H43zM4,16H5V17H4zM6,16H7V17H6zM7,16H8V17H7zM9,16H10V17H9zM11,16H12V17H11zM12,16H13V17H12zM14,16H15V17H14zM16,16H17V17H16zM17,16H18V17H17zM18,16H19V17H18zM20,16H21V17H20zM21,16H22V17H21zM22,16H23V17H22zM24,16H25V17H24zM26,16H27V17H26zM28,16H29V17H28zM30,16H31V17H30zM32,16H33V17H32zM34,16H35V17H34zM35,16H36V17H35zM36,16H37V17H36zM38,16H39V17H38zM40,16H41V17H40zM41,16H42V17H41zM43,16H44V17H43zM3,17H4V18H3zM4,17H5V18H4zM5,17H6V18H5zM8,17H9V18H8zM9,17H10V18H9zM10,17H11V18H10zM11,17H12V18H11zM14,17H15V18H14zM15,17H16V18H15zM18,17H19V18H18zM21,17H22V18H21zM22,17H23V18H22zM26,17H27V18H26zM28,17H29V18H28zM30,17H31V18H30zM31,17H32V18H31zM32,17H33V18H32zM33,17H34V18H33zM37,17H38V18H37zM39,17H40V18H39zM41,17H42V18H41zM42,17H43V18H42zM43,17H44V18H43zM6,18H7V19H6zM7,18H8V19H7zM9,18H10V19H9zM10,18H11V19H10zM11,18H12V19H11zM12,18H13V19H12zM14,18H15V19H14zM16,18H17V19H16zM18,18H19V19H18zM19,18H20V19H19zM20,18H21V19H20zM22,18H23V19H22zM24,18H25V19H24zM26,18H27V19H26zM27,18H28V19H27zM28,18H29V19H28zM29,18H30V19H29zM31,18H32V19H31zM34,18H35V19H34zM36,18H37V19H36zM38,18H39V19H38zM39,18H40V19H39zM41,18H42V19H41zM3,19H4V20H3zM4,19H5V20H4zM8,19H9V20H8zM10,19H11V20H10zM13,19H14V20H13zM14,19H15V20H14zM15,19H16V20H15zM17,19H18V20H17zM19,19H20V20H19zM20,19H21V20H20zM21,19H22V20H21zM24,19H25V20H24zM25,19H26V20H25zM26,19H27V20H26zM29,19H30V20H29zM30,19H31V20H30zM32,19H33V20H32zM34,19H35V20H34zM35,19H36V20H35zM36,19H37V20H36zM38,19H39V20H38zM39,19H40V20H39zM40,19H41V20H40zM42,19H43V20H42zM43,19H44V20H43zM4,20H5V21H4zM5,20H6V21H5zM6,20H7V21H6zM9,20H10V21H9zM11,20H12V21H11zM14,20H15V21H14zM16,20H17V21H16zM18,20H19V21H18zM19,20H20V21H19zM20,20H21V21H20zM23,20H24V21H23zM27,20H28V21H27zM29,20H30V21H29zM33,20H34V21H33zM35,20H36V21H35zM37,20H38V21H37zM39,20H40V21H39zM41,20H42V21H41zM43,20H44V21H43zM3,21H4V22H3zM5,21H6V22H5zM8,21H9V22H8zM9,21H10V22H9zM10,21H11V22H10zM11,21H12V22H11zM12,21H13V22H12zM13,21H14V22H13zM15,21H16V22H15zM19,21H20V22H19zM22,21H23V22H22zM23,21H24V22H23zM24,21H25V22H24zM27,21H28V22H27zM28,21H29V22H28zM31,21H32V22H31zM33,21H34V22H33zM34,21H35V22H34zM36,21H37V22H36zM37,21H38V22H37zM38,21H39V22H38zM41,21H42V22H41zM42,21H43V22H42zM3,22H4V23H3zM6,22H7V23H6zM7,22H8V23H7zM8,22H9V23H8zM10,22H11V23H10zM12,22H13V23H12zM14,22H15V23H14zM15,22H16V23H15zM16,22H17V23H16zM18,22H19V23H18zM19,22H20V23H19zM20,22H21V23H20zM21,22H22V23H21zM22,22H23V23H22zM24,22H25V23H24zM25,22H26V23H25zM26,22H27V23H26zM28,22H29V23H28zM30,22H31V23H30zM31,22H32V23H31zM33,22H34V23H33zM35,22H36V23H35zM37,22H38V23H37zM41,22H42V23H41zM42,22H43V23H42zM43,22H44V23H43zM4,23H5V24H4zM7,23H8V24H7zM11,23H12V24H11zM12,23H13V24H12zM13,23H14V24H13zM15,23H16V24H15zM17,23H18V24H17zM18,23H19V24H18zM19,23H20V24H19zM21,23H22V24H21zM23,23H24V24H23zM25,23H26V24H25zM26,23H27V24H26zM28,23H29V24H28zM31,23H32V24H31zM33,23H34V24H33zM34,23H35V24H34zM35,23H36V24H35zM39,23H40V24H39zM40,23H41V24H40zM41,23H42V24H41zM43,23H44V24H43zM3,24H4V25H3zM4,24H5V25H4zM5,24H6V25H5zM8,24H9V25H8zM9,24H10V25H9zM11,24H12V25H11zM12,24H13V25H12zM14,24H15V25H14zM16,24H17V25H16zM17,24H18V25H17zM19,24H20V25H19zM20,24H21V25H20zM21,24H22V25H21zM23,24H24V25H23zM24,24H25V25H24zM27,24H28V25H27zM28,24H29V25H28zM29,24H30V25H29zM30,24H31V25H30zM32,24H33V25H32zM33,24H34V25H33zM35,24H36V25H35zM36,24H37V25H36zM39,24H40V25H39zM42,24H43V25H42zM43,24H44V25H43zM3,25H4V26H3zM6,25H7V26H6zM8,25H9V26H8zM12,25H13V26H12zM15,25H16V26H15zM16,25H17V26H16zM17,25H18V26H17zM18,25H19V26H18zM20,25H21V26H20zM22,25H23V26H22zM23,25H24V26H23zM24,25H25V26H24zM25,25H26V26H25zM26,25H27V26H26zM27,25H28V26H27zM30,25H31V26H30zM34,25H35V26H34zM36,25H37V26H36zM37,25H38V26H37zM38,25H39V26H38zM40,25H41V26H40zM42,25H43V26H42zM3,26H4V27H3zM4,26H5V27H4zM5,26H6V27H5zM7,26H8V27H7zM8,26H9V27H8zM9,26H10V27H9zM10,26H11V27H10zM11,26H12V27H11zM14,26H15V27H14zM15,26H16V27H15zM16,26H17V27H16zM21,26H22V27H21zM22,26H23V27H22zM23,26H24V27H23zM27,26H28V27H27zM29,26H30V27H29zM31,26H32V27H31zM33,26H34V27H33zM34,26H35V27H34zM36,26H37V27H36zM37,26H38V27H37zM39,26H40V27H39zM40,26H41V27H40zM41,26H42V27H41zM43,26H44V27H43zM6,27H7V28H6zM7,27H8V28H7zM8,27H9V28H8zM10,27H11V28H10zM12,27H13V28H12zM13,27H14V28H13zM17,27H18V28H17zM18,27H19V28H18zM20,27H21V28H20zM21,27H22V28H21zM23,27H24V28H23zM24,27H25V28H24zM25,27H26V28H25zM27,27H28V28H27zM28,27H29V28H28zM33,27H34V28H33zM35,27H36V28H35zM37,27H38V28H37zM38,27H39V28H38zM41,27H42V28H41zM42,27H43V28H42zM3,28H4V29H3zM5,28H6V29H5zM6,28H7V29H6zM7,28H8V29H7zM9,28H10V29H9zM10,28H11V29H10zM13,28H14V29H13zM14,28H15V29H14zM16,28H17V29H16zM19,28H20V29H19zM20,28H21V29H20zM22,28H23V29H22zM24,28H25V29H24zM26,28H27V29H26zM27,28H28V29H27zM28,28H29V29H28zM29,28H30V29H29zM31,28H32V29H31zM34,28H35V29H34zM35,28H36V29H35zM36,28H37V29H36zM37,28H38V29H37zM39,28H40V29H39zM3,29H4V30H3zM4,29H5V30H4zM5,29H6V30H5zM6,29H7V30H6zM7,29H8V30H7zM8,29H9V30H8zM9,29H10V30H9zM11,29H12V30H11zM13,29H14V30H13zM16,29H17V30H16zM17,29H18V30H17zM18,29H19V30H18zM19,29H20V30H19zM21,29H22V30H21zM23,29H24V30H23zM24,29H25V30H24zM25,29H26V30H25zM26,29H27V30H26zM28,29H30V30H28zM30,29H31V30H30zM32,29H33V30H32zM34,29H35V30H34zM36,29H37V30H36zM38,29H39V30H38zM40,29H41V30H40zM42,29H43V30H42zM43,29H44V30H43zM4,30H5V31H4zM5,30H6V31H5zM8,30H9V31H8zM12,30H13V31H12zM14,30H15V31H14zM16,30H17V31H16zM17,30H18V31H17zM18,30H19V31H18zM20,30H21V31H20zM21,30H22V31H21zM24,30H25V31H24zM27,30H28V31H27zM28,30H29V31H28zM29,30H30V31H29zM30,30H31V31H30zM31,30H32V31H31zM33,30H34V31H33zM35,30H36V31H35zM38,30H39V31H38zM41,30H42V31H41zM42,30H43V31H42zM43,30H44V31H43zM3,31H4V32H3zM6,31H7V32H6zM7,31H8V32H7zM8,31H9V32H8zM11,31H12V32H11zM12,31H13V32H12zM13,31H14V32H13zM16,31H17V32H16zM17,31H18V32H17zM19,31H20V32H19zM24,31H25V32H24zM26,31H27V32H26zM27,31H28V32H27zM30,31H31V32H30zM31,31H32V32H31zM32,31H33V32H32zM34,31H35V32H34zM35,31H36V32H35zM36,31H37V32H36zM39,31H40V32H39zM41,31H42V32H41zM43,31H44V32H43zM5,32H6V33H5zM6,32H7V33H6zM9,32H10V33H9zM10,32H11V33H10zM12,32H13V33H12zM15,32H16V33H15zM16,32H17V33H16zM17,32H18V33H17zM18,32H19V33H18zM19,32H20V33H19zM20,32H21V33H20zM21,32H22V33H21zM23,32H24V33H23zM25,32H26V33H25zM26,32H27V33H26zM29,32H30V33H29zM31,32H32V33H31zM32,32H33V33H32zM33,32H34V33H33zM35,32H36V33H35zM38,32H39V33H38zM39,32H40V33H39zM42,32H43V33H42zM43,32H44V33H43zM3,33H4V34H3zM4,33H5V34H4zM5,33H6V34H5zM6,33H7V34H6zM7,33H8V34H7zM8,33H9V34H8zM9,33H10V34H9zM11,33H12V34H11zM13,33H14V34H13zM14,33H15V34H14zM15,33H16V34H15zM16,33H17V34H16zM17,33H18V34H17zM18,33H19V34H18zM19,33H20V34H19zM21,33H22V34H21zM22,33H23V34H22zM23,33H24V34H23zM24,33H25V34H24zM26,33H27V34H26zM27,33H28V34H27zM28,33H29V34H28zM29,33H30V34H29zM30,33H31V34H30zM31,33H32V34H31zM33,33H34V34H33zM34,33H35V34H34zM37,33H38V34H37zM39,33H40V34H39zM41,33H42V34H41zM42,33H43V34H42zM12,34H13V35H12zM14,34H15V35H14zM16,34H17V35H16zM19,34H20V35H19zM20,34H21V35H20zM21,34H22V35H21zM24,34H25V35H24zM26,34H27V35H26zM30,34H31V35H30zM32,34H33V35H32zM34,34H35V35H34zM35,34H36V35H35zM37,34H38V35H37zM38,34H39V35H38zM39,34H40V35H39zM40,34H41V35H40zM42,34H43V35H42zM43,34H44V35H43zM3,35H4V36H3zM9,35H10V36H9zM11,35H12V36H11zM13,35H14V36H13zM14,35H15V36H14zM15,35H16V36H15zM16,35H17V36H16zM18,35H19V36H18zM19,35H20V36H19zM20,35H21V36H20zM22,35H23V36H22zM23,35H24V36H23zM24,35H25V36H24zM25,35H26V36H25zM26,35H27V36H26zM27,35H28V36H27zM30,35H31V36H30zM31,35H32V36H31zM34,35H35V36H34zM36,35H37V36H36zM37,35H38V36H37zM40,35H41V36H40zM3,36H4V37H3zM4,36H5V37H4zM5,36H6V37H5zM6,36H7V37H6zM7,36H8V37H7zM8,36H9V37H8zM9,36H10V37H9zM11,36H12V37H11zM13,36H14V37H13zM15,36H16V37H15zM17,36H18V37H17zM19,36H20V37H19zM21,36H22V37H21zM22,36H23V37H22zM24,36H25V37H24zM27,36H28V37H27zM29,36H30V37H29zM31,36H32V37H31zM33,36H34V37H33zM35,36H36V37H35zM36,36H37V37H36zM37,36H38V37H37zM39,36H40V37H39zM41,36H42V37H41zM43,36H44V37H43zM3,37H4V38H3zM9,37H10V38H9zM11,37H12V38H11zM14,37H15V38H14zM16,37H17V38H16zM17,37H18V38H17zM18,37H19V38H18zM19,37H20V38H19zM21,37H22V38H21zM23,37H24V38H23zM24,37H25V38H24zM25,37H26V38H25zM26,37H27V38H26zM28,37H29V38H28zM31,37H32V38H31zM32,37H33V38H32zM33,37H34V38H33zM36,37H37V38H36zM37,37H38V38H37zM41,37H42V38H41zM42,37H43V38H42zM43,37H44V38H43zM3,38H4V39H3zM5,38H6V39H5zM6,38H7V39H6zM7,38H8V39H7zM9,38H10V39H9zM11,38H12V39H11zM13,38H14V39H13zM15,38H16V39H15zM18,38H19V39H18zM20,38H21V39H20zM21,38H22V39H21zM22,38H23V39H22zM23,38H24V39H23zM26,38H27V39H26zM27,38H28V39H27zM30,38H31V39H30zM31,38H32V39H31zM32,38H33V39H32zM35,38H36V39H35zM38,38H39V39H38zM39,38H40V39H39zM40,38H41V39H40zM43,38H44V39H43zM3,39H4V40H3zM5,39H6V40H5zM6,39H7V40H6zM7,39H8V40H7zM9,39H10V40H9zM12,39H13V40H12zM13,39H14V40H13zM14,39H15V40H14zM15,39H16V40H15zM17,39H18V40H17zM21,39H22V40H21zM23,39H24V40H23zM24,39H25V40H24zM25,39H26V40H25zM28,39H29V40H28zM31,39H32V40H31zM34,39H35V40H34zM35,39H36V40H35zM38,39H39V40H38zM40,39H41V40H40zM42,39H43V40H42zM3,40H4V41H3zM9,40H10V41H9zM11,40H12V41H11zM12,40H13V41H12zM14,40H15V41H14zM16,40H17V41H16zM18,40H19V41H18zM19,40H20V41H19zM23,40H24V41H23zM24,40H25V41H24zM28,40H29V41H28zM30,40H31V41H30zM31,40H32V41H31zM33,40H34V41H33zM34,40H35V41H34zM35,40H36V41H35zM37,40H38V41H37zM39,40H40V41H39zM40,40H41V41H40zM42,40H43V41H42zM3,41H4V42H3zM4,41H5V42H4zM5,41H6V42H5zM6,41H7V42H6zM7,41H8V42H7zM8,41H9V42H8zM9,41H10V42H9zM11,41H12V42H11zM13,41H14V42H13zM16,41H17V42H16zM18,41H19V42H18zM19,41H20V42H19zM20,41H21V42H20zM21,41H22V42H21zM25,41H26V42H25zM27,41H28V42H27zM29,41H30V42H29zM30,41H31V42H30zM34,41H35V42H34zM35,41H36V42H35zM37,41H38V42H37zM38,41H39V42H38zM39,41H40V42H39zM41,41H42V42H41zM42,41H43V42H42zM43,41H44V42H43zM4,42H5V43H4zM7,42H8V43H7zM8,42H9V43H8zM9,42H10V43H9zM12,42H13V43H12zM14,42H15V43H14zM15,42H16V43H15zM16,42H17V43H16zM17,42H18V43H17zM18,42H19V43H18zM19,42H20V43H19zM23,42H24V43H23zM24,42H25V43H24zM27,42H28V43H27zM28,42H29V43H28zM33,42H34V43H33zM35,42H36V43H35zM37,42H38V43H37zM41,42H42V43H41zM43,42H44V43H43zM3,43H4V44H3zM4,43H5V44H4zM5,43H6V44H5zM6,43H7V44H6zM7,43H8V44H7zM8,43H9V44H8zM9,43H10V44H9zM11,43H12V44H11zM13,43H14V44H13zM14,43H15V44H14zM18,43H19V44H18zM19,43H20V44H19zM20,43H21V44H20zM21,43H22V44H21zM23,43H24V44H23zM24,43H25V44H24zM26,43H27V44H26zM30,43H31V44H30zM31,43H32V44H31zM32,43H33V44H32zM34,43H35V44H34zM35,43H36V44H35zM37,43H38V44H37zM39,43H40V44H39zM40,43H41V44H40zM43,43H44V44H43z" id="qr-path" fill="#000000" fill-opacity="1" fill-rule="nonzero" stroke="none"/></svg>